<?xml version="1.0" encoding="utf-8"?>
<svg version="1.1" id="Layer_1" xmlns="http://www.w3.org/2000/svg" xmlns:xlink="http://www.w3.org/1999/xlink" x="0px" y="0px"
   viewBox="0 0 40 40" style="enable-background:new 0 0 40 40;" xml:space="preserve">
<style type="text/css">
  .st0{fill:#2D374B;}
  .st1{fill:#28A0F0;}
</style>
<path class="st0" d="M24.7,19.7c0.5-0.9,0.7-2,0.7-3.1c0-1.1-0.2-2.1-0.7-3.1c-0.5-0.9-1.1-1.7-1.9-2.4s-1.7-1.2-2.8-1.5
  c-1.1-0.4-2.3-0.5-3.4-0.5H8.3v20h8.3c1.2,0,2.3-0.2,3.4-0.5s2-0.9,2.8-1.5c0.8-0.7,1.4-1.5,1.9-2.4c0.5-0.9,0.7-2,0.7-3.1
  c0-1.1-0.2-2.1-0.7-3.1 M20.7,23.7c-1.1,1.1-2.6,1.7-4.2,1.7h-4V12.5h4c1.6,0,3.1,0.6,4.2,1.7c1.1,1.1,1.7,2.6,1.7,4.2
  C22.4,21.1,21.8,22.6,20.7,23.7"/>
<path class="st1" d="M29.5,27.5L25,20.3l4.5-7.2h-4.2L23,17.3l-2.3-4.2h-4.2l4.5,7.2l-4.5,7.2h4.2l2.3-4.2l2.3,4.2H29.5z"/>
</svg>
