<svg width="40" height="40" viewBox="0 0 40 40" fill="none" xmlns="http://www.w3.org/2000/svg">
    <path d="M20 40C31.0457 40 40 31.0457 40 20C40 8.9543 31.0457 0 20 0C8.9543 0 0 8.9543 0 20C0 31.0457 8.9543 40 20 40Z" fill="#12AAFF"/>
    <path d="M20.0956 7.66669L19.6436 9.19002V27.1367L20.0956 27.5867L29.9019 21.79L20.0956 7.66669Z" fill="white"/>
    <path d="M20.0956 7.66669L10.2876 21.79L20.0956 27.5867V18.3867V7.66669Z" fill="white" fill-opacity="0.8"/>
    <path d="M20.0956 29.3133L19.8516 29.6133V34.7133L20.0956 35.4133L29.9119 23.52L20.0956 29.3133Z" fill="white"/>
    <path d="M20.0956 35.4133V29.3133L10.2876 23.52L20.0956 35.4133Z" fill="white" fill-opacity="0.8"/>
    <path d="M20.0956 27.5867L29.9019 21.79L20.0956 18.3867V27.5867Z" fill="white" fill-opacity="0.9"/>
    <path d="M10.2876 21.79L20.0956 27.5867V18.3867L10.2876 21.79Z" fill="white" fill-opacity="0.8"/>
</svg>
