<svg xmlns="http://www.w3.org/2000/svg" viewBox="0 0 300 300">
  <defs>
    <linearGradient id="a" x1="0%" y1="0%" x2="100%" y2="100%">
      <stop offset="0%" stop-color="#FFA825"/>
      <stop offset="100%" stop-color="#FF6F00"/>
    </linearGradient>
  </defs>
  <path fill="url(#a)" d="M150 0c82.8 0 150 67.2 150 150s-67.2 150-150 150S0 232.8 0 150 67.2 0 150 0Z"/>
  <path fill="#FFF" d="m150.7 73-3.4 11.5v94.8l3.4 3.4 43.8-25.8-43.8-83.9Z"/>
  <path fill="#FFE6CC" d="M150.7 73 107 182.8l43.7 25.8V73Z"/>
  <path fill="#FFF" d="m150.7 216.7-0.5 0.7v33.5l0.5 1.5 43.8-61.7-43.8 26Z"/>
  <path fill="#FFE6CC" d="M150.7 252.4v-35.7L107 190.7l43.7 61.7Z"/>
  <path fill="#FFCA80" d="m150.7 208.6 43.8-25.8-43.8-19.9v45.7Z"/>
  <path fill="#FFE6CC" d="m107 182.8 43.7 25.8v-45.7L107 182.8Z"/>
</svg>
